<?xml version="1.0" encoding="UTF-8"?>
<svg width="982px" height="502px" viewBox="0 0 982 502" version="1.1" xmlns="http://www.w3.org/2000/svg" xmlns:xlink="http://www.w3.org/1999/xlink">
    <!-- Generator: sketchtool 61.2 (101010) - https://sketch.com -->
    <title>1D4B6987-03CF-4003-8CF5-4A0E1B0C2E89</title>
    <desc>Created with sketchtool.</desc>
    <g id="New-flyhub" stroke="none" stroke-width="1" fill="none" fill-rule="evenodd">
        <g id="03.-Product---For-Travel-Organizer" transform="translate(-245.000000, -108.000000)">
            <g id="Slider" transform="translate(245.000000, 108.000000)">
                <g id="Bg">
                    <g id="header-bg-pattern-copy" transform="translate(-293.000000, -817.000000)">
                        <polygon id="Triangle" fill="#1D68A4" opacity="0.0439877717" points="563.255 549.96712 53 1028.93424 53 71"></polygon>
                        <path d="M1312.77617,1359.33583 L926,1722 L926,1722 L926,985 L1312.77617,1347.66417 C1315.99921,1350.68628 1316.16209,1355.74898 1313.13998,1358.97202 C1313.02264,1359.09716 1312.90131,1359.2185 1312.77617,1359.33583 Z" id="Triangle-Copy-3" fill="#E5D2F5" opacity="0.849028088" transform="translate(1122.500000, 1353.500000) rotate(-90.000000) translate(-1122.500000, -1353.500000) "></path>
                        <path d="M860.255,478.96712 L363.475197,945.285317 C360.253799,948.309185 355.191011,948.149055 352.167143,944.927657 C350.774926,943.444496 350,941.486677 350,939.45246 L350,0 L350,0 L860.255,478.96712 Z" id="Triangle-Copy-2" fill="#E5D2F5"></path>
                        <polygon id="Triangle-Copy" fill="#E5D2F5" transform="translate(291.000000, 1277.000000) rotate(-90.000000) translate(-291.000000, -1277.000000) " points="446 1277 136 1568 136 986"></polygon>
                    </g>
                </g>
            </g>
        </g>
    </g>
</svg>